<svg t="1586335519335" class="icon" viewBox="0 0 1024 1024" version="1.1" xmlns="http://www.w3.org/2000/svg" p-id="10284" width="200" height="200"><path d="M51.198195 512.018047a460.783757 460.783757 0 0 1 921.567515 0 25.599098 25.599098 0 0 0 51.198195 0 511.981953 511.981953 0 1 0-921.567514 307.189172 25.599098 25.599098 0 1 0 40.958556-30.718917A456.687902 456.687902 0 0 1 51.198195 512.018047z" fill="" p-id="10285"></path><path d="M690.919645 477.459266v-51.198196h-118.779813l101.116436-101.372426-36.094728-36.350719-125.435578 125.435578-125.435579-125.435578-36.094727 36.350719 101.116435 101.372426h-118.779813v51.198196h153.594586v67.581617h-153.850577v51.198196h153.850577v188.409358h51.198195v-188.409358h153.338595v-51.198196h-153.338595v-67.581617h153.594586z" fill="" p-id="10286"></path><path d="M998.364808 609.8066h-102.396391a25.599098 25.599098 0 0 0 0 51.198196h37.374683L513.517898 965.378066 383.986464 835.590641l-2.559909-1.535945-2.55991-1.791937a25.599098 25.599098 0 0 0-5.375811-2.55991h-8.959684a25.599098 25.599098 0 0 0-7.167747 1.279955h-4.863829l-177.401746 102.39639a25.599098 25.599098 0 0 0 25.599097 44.286439l160.506343-92.668733 131.067379 131.06738a25.599098 25.599098 0 0 0 5.11982 3.327882 25.599098 25.599098 0 0 0 6.911756 2.55991h7.935721a25.599098 25.599098 0 0 0 6.143783 0h2.047928a25.599098 25.599098 0 0 0 4.863828-2.303919L972.76571 695.563577v41.982521a25.599098 25.599098 0 0 0 51.198195 0v-102.396391a25.599098 25.599098 0 0 0-25.599097-25.343107z" fill="" p-id="10287"></path></svg>